<svg width="64" height="64" viewBox="0 0 64 64" fill="none" xmlns="http://www.w3.org/2000/svg">
  <defs>
    <!-- Modern gradient background -->
    <linearGradient id="bg" x1="0%" y1="0%" x2="100%" y2="100%">
      <stop offset="0%" style="stop-color:#0F172A;stop-opacity:1" />
      <stop offset="50%" style="stop-color:#1E293B;stop-opacity:1" />
      <stop offset="100%" style="stop-color:#334155;stop-opacity:1" />
    </linearGradient>
    
    <!-- Machine gradient -->
    <linearGradient id="machine" x1="0%" y1="0%" x2="100%" y2="100%">
      <stop offset="0%" style="stop-color:#F1F5F9;stop-opacity:1" />
      <stop offset="100%" style="stop-color:#E2E8F0;stop-opacity:1" />
    </linearGradient>
    
    <!-- Glow effect -->
    <filter id="glow">
      <feGaussianBlur stdDeviation="2" result="coloredBlur"/>
      <feMerge> 
        <feMergeNode in="coloredBlur"/>
        <feMergeNode in="SourceGraphic"/>
      </feMerge>
    </filter>
  </defs>
  
  <!-- Background with modern gradient -->
  <rect width="64" height="64" rx="18" fill="url(#bg)"/>
  
  <!-- Subtle border -->
  <rect x="1" y="1" width="62" height="62" rx="17" fill="none" stroke="rgba(255,255,255,0.1)" stroke-width="1"/>
  
  <!-- CPAP Machine (modern design) -->
  <rect x="16" y="20" width="32" height="20" rx="4" fill="url(#machine)" stroke="rgba(0,0,0,0.1)" stroke-width="0.5"/>
  
  <!-- Machine display screen -->
  <rect x="18" y="22" width="28" height="10" rx="2" fill="#0F172A"/>
  <rect x="20" y="24" width="24" height="6" rx="1" fill="#3B82F6"/>
  <rect x="20" y="25" width="24" height="1" fill="#60A5FA"/>
  <rect x="20" y="27" width="24" height="1" fill="#60A5FA"/>
  <rect x="20" y="29" width="16" height="1" fill="#60A5FA"/>
  
  <!-- Air flow lines (more elegant) -->
  <g opacity="0.8">
    <path d="M8 32 Q12 30 16 32" stroke="white" stroke-width="2" fill="none" stroke-linecap="round"/>
    <path d="M48 32 Q52 30 56 32" stroke="white" stroke-width="2" fill="none" stroke-linecap="round"/>
    <circle cx="10" cy="32" r="1.5" fill="white"/>
    <circle cx="54" cy="32" r="1.5" fill="white"/>
  </g>
  
  <!-- Mask connection (more realistic) -->
  <circle cx="32" cy="16" r="3" fill="white"/>
  <path d="M32 16 L32 20" stroke="white" stroke-width="2.5" stroke-linecap="round"/>
  <circle cx="32" cy="16" r="1" fill="#0F172A"/>
  
  <!-- Maintenance icon (modern wrench) -->
  <g transform="translate(42, 42)">
    <path d="M0 0 L4 4 L6 2 L2 -2 Z" fill="white" opacity="0.9"/>
    <circle cx="1" cy="1" r="0.8" fill="#3B82F6"/>
    <path d="M8 8 L12 12 L14 10 L10 6 Z" fill="white" opacity="0.7"/>
  </g>
  
  <!-- Status indicator (pulsing green) -->
  <circle cx="48" cy="16" r="3" fill="#10B981" filter="url(#glow)"/>
  <circle cx="48" cy="16" r="1.5" fill="white"/>
  
  <!-- Subtle highlight on machine -->
  <rect x="16" y="20" width="32" height="3" rx="2" fill="rgba(255,255,255,0.2)"/>
  
  <!-- Corner accent -->
  <circle cx="56" cy="8" r="4" fill="rgba(59, 130, 246, 0.3)"/>
  <circle cx="56" cy="8" r="2" fill="#3B82F6"/>
</svg>
